<?xml version="1.0" standalone="no"?>
<!DOCTYPE svg PUBLIC "-//W3C//DTD SVG 20010904//EN"
 "http://www.w3.org/TR/2001/REC-SVG-20010904/DTD/svg10.dtd">
<svg version="1.0" xmlns="http://www.w3.org/2000/svg"
 width="260.000000pt" height="260.000000pt" viewBox="0 0 260.000000 260.000000"
 preserveAspectRatio="xMidYMid meet">
<metadata>
Created by potrace 1.14, written by Peter Selinger 2001-2017
</metadata>
<g transform="translate(0.000000,260.000000) scale(0.100000,-0.100000)"
fill="#000000" stroke="none">
<path d="M0 1300 l0 -1300 215 0 215 0 0 485 0 485 100 0 99 0 7 -60 7 -60 47
44 c62 58 94 73 179 87 129 19 236 -22 295 -115 l28 -45 32 41 c119 154 354
167 481 26 81 -90 94 -173 95 -590 l0 -298 123 0 122 0 -50 24 c-108 51 -185
152 -185 243 l0 43 99 0 99 0 10 -43 c20 -77 85 -117 192 -117 118 0 170 35
170 116 0 66 -38 93 -201 138 -224 63 -310 119 -339 222 -26 93 5 189 84 262
58 54 118 80 213 93 147 20 295 -22 373 -108 46 -49 64 -86 75 -151 l7 -42
-111 0 c-111 0 -111 0 -111 24 0 32 -45 85 -87 102 -66 28 -161 15 -204 -28
-23 -24 -29 -38 -29 -75 0 -73 28 -93 189 -133 210 -52 312 -114 347 -211 10
-27 13 197 13 1104 l1 1137 -1300 0 -1300 0 0 -1300z"/>
<path d="M767 796 c-28 -8 -63 -27 -83 -47 l-34 -33 0 -358 0 -358 175 0 176
0 -3 348 c-3 328 -4 349 -23 382 -39 65 -120 91 -208 66z"/>
<path d="M1350 799 c-39 -12 -94 -60 -116 -101 -11 -22 -14 -93 -14 -363 l0
-335 181 0 180 0 -3 337 c-3 322 -4 340 -25 385 -13 29 -33 52 -52 62 -40 21
-107 28 -151 15z"/>
<path d="M2582 182 c-17 -56 -74 -117 -144 -151 l-61 -31 111 0 112 0 0 110
c0 61 -2 110 -3 110 -2 0 -9 -17 -15 -38z"/>
</g>
</svg>
